<svg width="12" height="14" viewBox="0 0 12 14" fill="none" xmlns="http://www.w3.org/2000/svg">
<path d="M10.6667 1.75001H10.0834V0.583344H8.91669V1.75001H3.08335V0.583344H1.91669V1.75001H1.33335C0.691687 1.75001 0.166687 2.27501 0.166687 2.91668V12.25C0.166687 12.8917 0.691687 13.4167 1.33335 13.4167H10.6667C11.3084 13.4167 11.8334 12.8917 11.8334 12.25V2.91668C11.8334 2.27501 11.3084 1.75001 10.6667 1.75001ZM10.6667 12.25H1.33335V4.66668H10.6667V12.25Z" fill="#1C4980"/>
<path fill-rule="evenodd" clip-rule="evenodd" d="M2.50002 7.00001C2.50002 6.67784 2.76119 6.41668 3.08335 6.41668H4.83335C5.15552 6.41668 5.41669 6.67784 5.41669 7.00001C5.41669 7.32218 5.15552 7.58334 4.83335 7.58334H3.08335C2.76119 7.58334 2.50002 7.32218 2.50002 7.00001ZM6.58335 7.00001C6.58335 6.67784 6.84452 6.41668 7.16669 6.41668H8.91669C9.23885 6.41668 9.50002 6.67784 9.50002 7.00001C9.50002 7.32218 9.23885 7.58334 8.91669 7.58334H7.16669C6.84452 7.58334 6.58335 7.32218 6.58335 7.00001ZM2.50002 9.33334C2.50002 9.01118 2.76119 8.75001 3.08335 8.75001H4.83335C5.15552 8.75001 5.41669 9.01118 5.41669 9.33334C5.41669 9.65551 5.15552 9.91668 4.83335 9.91668H3.08335C2.76119 9.91668 2.50002 9.65551 2.50002 9.33334ZM6.58335 9.33334C6.58335 9.01118 6.84452 8.75001 7.16669 8.75001H8.91669C9.23885 8.75001 9.50002 9.01118 9.50002 9.33334C9.50002 9.65551 9.23885 9.91668 8.91669 9.91668H7.16669C6.84452 9.91668 6.58335 9.65551 6.58335 9.33334Z" fill="#1C4980"/>
</svg>
