<svg width="20" height="20" viewBox="0 0 20 20" fill="none" xmlns="http://www.w3.org/2000/svg">
<mask id="mask0_0_509" style="mask-type:alpha" maskUnits="userSpaceOnUse" x="0" y="0" width="20" height="20">
<rect width="20" height="20" fill="#D9D9D9"/>
</mask>
<g mask="url(#mask0_0_509)">
<path d="M7.83329 16.2917C7.58329 15.8334 7.36454 15.3577 7.17704 14.8646C6.98954 14.3715 6.83329 13.8611 6.70829 13.3334H4.24996C4.65274 14.0278 5.15621 14.632 5.76038 15.1459C6.36454 15.6597 7.05551 16.0417 7.83329 16.2917ZM3.54163 11.6667H6.37496C6.33329 11.3889 6.30204 11.1146 6.28121 10.8438C6.26038 10.5729 6.24996 10.2917 6.24996 10C6.24996 9.70835 6.26038 9.4271 6.28121 9.15627C6.30204 8.88544 6.33329 8.61113 6.37496 8.33335H3.54163C3.47218 8.61113 3.4201 8.88544 3.38538 9.15627C3.35065 9.4271 3.33329 9.70835 3.33329 10C3.33329 10.2917 3.35065 10.5729 3.38538 10.8438C3.4201 11.1146 3.47218 11.3889 3.54163 11.6667ZM4.24996 6.66669H6.70829C6.83329 6.13891 6.98954 5.62849 7.17704 5.13544C7.36454 4.64238 7.58329 4.16669 7.83329 3.70835C7.05551 3.95835 6.36454 4.3403 5.76038 4.85419C5.15621 5.36808 4.65274 5.97224 4.24996 6.66669ZM8.41663 6.66669H11.5833C11.4166 6.05558 11.2013 5.47919 10.9375 4.93752C10.6736 4.39585 10.3611 3.87502 9.99996 3.37502C9.63885 3.87502 9.32635 4.39585 9.06246 4.93752C8.79857 5.47919 8.58329 6.05558 8.41663 6.66669ZM13.2916 6.66669H15.75C15.3472 5.97224 14.8437 5.36808 14.2395 4.85419C13.6354 4.3403 12.9444 3.95835 12.1666 3.70835C12.4166 4.16669 12.6354 4.64238 12.8229 5.13544C13.0104 5.62849 13.1666 6.13891 13.2916 6.66669ZM9.99996 18.3334C8.86107 18.3334 7.78468 18.1146 6.77079 17.6771C5.7569 17.2396 4.87149 16.6424 4.11454 15.8854C3.3576 15.1285 2.76038 14.2431 2.32288 13.2292C1.88538 12.2153 1.66663 11.1389 1.66663 10C1.66663 8.84724 1.88538 7.76738 2.32288 6.76044C2.76038 5.75349 3.3576 4.87155 4.11454 4.1146C4.87149 3.35766 5.7569 2.76044 6.77079 2.32294C7.78468 1.88544 8.86107 1.66669 9.99996 1.66669C11.1527 1.66669 12.2326 1.88544 13.2395 2.32294C14.2465 2.76044 15.1284 3.35766 15.8854 4.1146C16.6423 4.87155 17.2395 5.75349 17.677 6.76044C18.1145 7.76738 18.3333 8.84724 18.3333 10C18.3333 10.1389 18.3298 10.2778 18.3229 10.4167C18.3159 10.5556 18.3055 10.6945 18.2916 10.8334H16.6041C16.6319 10.6945 16.6493 10.559 16.6562 10.4271C16.6632 10.2952 16.6666 10.1528 16.6666 10C16.6666 9.70835 16.6493 9.4271 16.6145 9.15627C16.5798 8.88544 16.5277 8.61113 16.4583 8.33335H13.625C13.6666 8.61113 13.6979 8.88544 13.7187 9.15627C13.7395 9.4271 13.75 9.70835 13.75 10V10.4271C13.75 10.559 13.743 10.6945 13.7291 10.8334H12.0625C12.0763 10.6945 12.0833 10.559 12.0833 10.4271V10C12.0833 9.70835 12.0729 9.4271 12.052 9.15627C12.0312 8.88544 12 8.61113 11.9583 8.33335H8.04163C7.99996 8.61113 7.96871 8.88544 7.94788 9.15627C7.92704 9.4271 7.91663 9.70835 7.91663 10C7.91663 10.2917 7.92704 10.5729 7.94788 10.8438C7.96871 11.1146 7.99996 11.3889 8.04163 11.6667H10.8333V13.3334H8.41663C8.58329 13.9445 8.79857 14.5209 9.06246 15.0625C9.32635 15.6042 9.63885 16.125 9.99996 16.625C10.1527 16.4028 10.2986 16.1771 10.4375 15.9479C10.5763 15.7188 10.7083 15.4861 10.8333 15.25V18.2917C10.6944 18.3056 10.559 18.316 10.427 18.3229C10.2951 18.3299 10.1527 18.3334 9.99996 18.3334ZM16.625 17.8125L14.1666 15.3542V17.2084H12.5V12.5H17.2083V14.1667H15.3333L17.7916 16.625L16.625 17.8125Z" fill="#E9407A"/>
</g>
</svg>
