<svg width="20" height="20" viewBox="0 0 20 20" fill="none" xmlns="http://www.w3.org/2000/svg">
<mask id="mask0_0_534" style="mask-type:alpha" maskUnits="userSpaceOnUse" x="0" y="0" width="20" height="20">
<rect width="20" height="20" fill="#D9D9D9"/>
</mask>
<g mask="url(#mask0_0_534)">
<path d="M9.0921 14.3362H5.8335C4.63386 14.3362 3.61128 13.9135 2.76575 13.068C1.92021 12.2225 1.49744 11.2 1.49744 10.0005C1.49744 8.80098 1.92021 7.77835 2.76575 6.93265C3.61128 6.08692 4.63386 5.66406 5.8335 5.66406H9.0921V7.55992H5.83562C5.15719 7.55992 4.58053 7.79716 4.10565 8.27165C3.63074 8.74613 3.39329 9.32229 3.39329 10.0001C3.39329 10.678 3.63074 11.2541 4.10565 11.7286C4.58053 12.2031 5.15719 12.4403 5.83562 12.4403H9.0921V14.3362ZM6.55225 10.8733V9.12694H13.4481V10.8733H6.55225ZM10.9082 14.3362V12.4403H14.1647C14.8431 12.4403 15.4198 12.2031 15.8947 11.7286C16.3696 11.2541 16.607 10.678 16.607 10.0001C16.607 9.32229 16.3696 8.74613 15.8947 8.27165C15.4198 7.79716 14.8431 7.55992 14.1647 7.55992H10.9082V5.66406H14.1668C15.3665 5.66406 16.3891 6.08679 17.2346 6.93225C18.0801 7.77771 18.5029 8.8002 18.5029 9.99973C18.5029 11.1993 18.0801 12.2219 17.2346 13.0676C16.3891 13.9133 15.3665 14.3362 14.1668 14.3362H10.9082Z" fill="#0073E6"/>
</g>
</svg>
