<svg width="40" height="40" viewBox="0 0 40 40" fill="none" xmlns="http://www.w3.org/2000/svg">
<rect width="40" height="40" rx="20" fill="white"/>
<g clip-path="url(#clip0_22786_126)">
<path d="M23.2083 21.8333H22.4842L22.2275 21.5858C23.1258 20.5408 23.6667 19.1842 23.6667 17.7083C23.6667 14.4175 20.9992 11.75 17.7083 11.75C14.4175 11.75 11.75 14.4175 11.75 17.7083C11.75 20.9992 14.4175 23.6667 17.7083 23.6667C19.1842 23.6667 20.5408 23.1258 21.5858 22.2275L21.8333 22.4842V23.2083L26.4167 27.7825L27.7825 26.4167L23.2083 21.8333ZM17.7083 21.8333C15.4258 21.8333 13.5833 19.9908 13.5833 17.7083C13.5833 15.4258 15.4258 13.5833 17.7083 13.5833C19.9908 13.5833 21.8333 15.4258 21.8333 17.7083C21.8333 19.9908 19.9908 21.8333 17.7083 21.8333Z" fill="#1C4980"/>
</g>
<defs>
<clipPath id="clip0_22786_126">
<rect width="22" height="22" fill="white" transform="translate(9 9)"/>
</clipPath>
</defs>
</svg>
