<svg width="20" height="20" viewBox="0 0 20 20" fill="none" xmlns="http://www.w3.org/2000/svg">
<mask id="mask0_0_490" style="mask-type:alpha" maskUnits="userSpaceOnUse" x="0" y="0" width="20" height="20">
<rect width="20" height="20" fill="#D9D9D9"/>
</mask>
<g mask="url(#mask0_0_490)">
<path d="M0.678711 16.9209V14.4082C0.678711 13.9051 0.808864 13.4427 1.06917 13.0209C1.32949 12.5992 1.67533 12.2774 2.10669 12.0554C2.97777 11.6215 3.86433 11.2953 4.76636 11.0767C5.6684 10.8581 6.58453 10.7488 7.51475 10.7488C8.45135 10.7488 9.37074 10.8573 10.2729 11.0742C11.1751 11.2911 12.0584 11.6166 12.9228 12.0504C13.3542 12.2719 13.7 12.5931 13.9604 13.0139C14.2207 13.4347 14.3508 13.8994 14.3508 14.4079V16.9209H0.678711ZM16.0922 16.9209V14.2565C16.0922 13.6321 15.9237 13.0304 15.5868 12.4512C15.2498 11.8721 14.7639 11.3563 14.1289 10.9037C14.8007 10.9937 15.4358 11.1369 16.0342 11.3333C16.6327 11.5297 17.1961 11.7687 17.7245 12.0504C18.2377 12.3282 18.6321 12.656 18.9076 13.0338C19.1832 13.4117 19.3209 13.8242 19.3209 14.2714V16.9209H16.0922ZM7.51475 9.91547C6.57152 9.91547 5.76604 9.58161 5.09832 8.91389C4.43059 8.24615 4.09673 7.44066 4.09673 6.49743C4.09673 5.55419 4.43059 4.74871 5.09832 4.08099C5.76604 3.41327 6.57152 3.07941 7.51475 3.07941C8.45799 3.07941 9.26348 3.41327 9.93121 4.08099C10.5989 4.74871 10.9328 5.55419 10.9328 6.49743C10.9328 7.44066 10.5989 8.24615 9.93121 8.91389C9.26348 9.58161 8.45799 9.91547 7.51475 9.91547ZM16.0922 6.49739C16.0922 7.43733 15.7576 8.242 15.0884 8.91139C14.4192 9.58077 13.6147 9.91547 12.675 9.91547C12.5184 9.91547 12.3236 9.89727 12.0909 9.86089C11.8581 9.82451 11.6586 9.78216 11.4926 9.73384C11.8742 9.28276 12.1666 8.77999 12.3696 8.22553C12.5727 7.67107 12.6742 7.09529 12.6742 6.49818C12.6742 5.90107 12.5727 5.32503 12.3696 4.77007C12.1666 4.21513 11.8742 3.71211 11.4926 3.26101C11.6903 3.18825 11.8864 3.13979 12.0809 3.11564C12.2753 3.09148 12.4723 3.07941 12.6718 3.07941C13.6124 3.07941 14.4176 3.41409 15.0875 4.08345C15.7573 4.7528 16.0922 5.55744 16.0922 6.49739ZM2.57454 15.0251H12.455V14.4331C12.455 14.2836 12.4168 14.1476 12.3404 14.0253C12.264 13.9029 12.1633 13.8077 12.0383 13.7397C11.3082 13.378 10.5662 13.1051 9.81232 12.9209C9.05838 12.7367 8.29253 12.6446 7.51475 12.6446C6.74363 12.6446 5.97778 12.7367 5.21721 12.9209C4.45664 13.1051 3.71464 13.378 2.99121 13.7397C2.86621 13.8077 2.76552 13.9029 2.68913 14.0253C2.61274 14.1476 2.57454 14.2836 2.57454 14.4331V15.0251ZM7.51396 8.09434C7.95291 8.09434 8.32893 7.93806 8.64202 7.62549C8.95514 7.31292 9.11169 6.93716 9.11169 6.49822C9.11169 6.05929 8.9554 5.68327 8.64282 5.37018C8.33025 5.05707 7.95449 4.90051 7.51554 4.90051C7.07661 4.90051 6.7006 5.0568 6.3875 5.36939C6.07439 5.68196 5.91784 6.0577 5.91784 6.49664C5.91784 6.93558 6.07413 7.3116 6.38671 7.6247C6.69928 7.9378 7.07503 8.09434 7.51396 8.09434Z" fill="#6548EE"/>
</g>
</svg>
