<svg width="22" height="20" viewBox="0 0 22 20" fill="none" xmlns="http://www.w3.org/2000/svg">
<path d="M19.1677 3.49563H15.0796C14.8592 1.49813 13.6597 0 12.142 0H8.91065C8.07833 0 7.29498 0.449438 6.73195 1.29838C6.31579 1.89763 6.04651 2.67166 5.97307 3.49563H1.88495C0.856793 3.49563 0 4.36954 0 5.46817V18.0275C0 19.1011 0.832314 20 1.88495 20H19.1677C20.1958 20 21.0526 19.1261 21.0526 18.0275V5.46817C21.0526 4.36954 20.2203 3.49563 19.1677 3.49563ZM12.1175 9.23845H8.93513C8.20073 9.23845 7.58874 9.88764 7.58874 10.6866V11.4107C3.42717 10.437 1.51775 9.56305 1.22399 9.16355V5.66792C1.22399 5.29338 1.56671 4.99376 1.98286 4.99376H19.0698C19.4859 4.99376 19.8286 5.29338 19.8286 5.66792V9.13858C19.5349 9.53808 17.6255 10.412 13.4639 11.4107V10.6866C13.4639 9.88764 12.8519 9.23845 12.1175 9.23845ZM7.73562 2.24719C7.93146 1.97253 8.34761 1.49813 8.91065 1.49813H12.142C12.9743 1.49813 13.6842 2.47191 13.8556 3.74532H7.19706C7.2705 3.17104 7.46634 2.64669 7.73562 2.24719ZM19.1922 18.7266H1.86047C1.51775 18.7266 1.22399 18.427 1.22399 18.0774V10.6117C2.27662 11.161 4.18605 11.8352 7.68666 12.6092C7.90698 14.0574 9.10649 15.1561 10.5753 15.1561C12.0196 15.1561 13.2191 14.0574 13.4149 12.6092C16.9155 11.8352 18.825 11.161 19.8531 10.6117V18.0774C19.8286 18.427 19.5349 18.7266 19.1922 18.7266Z" fill="#6548EE"/>
</svg>
